 <svg viewBox="0 0 32 32" width="32" height="32" class="  auIcon auIcon32 " focusable="false"     xmlns="http://www.w3.org/2000/svg">
                        <path
                            d="M16 8.52l2.11 4.27.46.94 1 .15 4.71.68-3.41 3.32-.75.74.18 1 .8 4.69-4.21-2.21-.89-.46-.93.49-4.21 2.21.8-4.69.18-1-.75-.74-3.41-3.35 4.71-.68 1-.15.46-.94L16 8.52M16 4l-3.9 7.9-8.72 1.27 6.31 6.15L8.2 28l7.8-4.1 7.8 4.1-1.49-8.68 6.31-6.15-8.72-1.27L16 4z">
                        </path>
                    </svg>

                    
                    